<?xml version="1.0" encoding="UTF-8"?>
<svg width="32" height="32" viewBox="0 0 32 32" fill="none" xmlns="http://www.w3.org/2000/svg">
  <path d="M24 8C24 5.79086 22.2091 4 20 4H12C9.79086 4 8 5.79086 8 8V24C8 26.2091 9.79086 28 12 28H20C22.2091 28 24 26.2091 24 24V8Z" fill="#2C3E50"/>
  <path d="M16 6C14.3431 6 13 7.34315 13 9C13 10.6569 14.3431 12 16 12C17.6569 12 19 10.6569 19 9C19 7.34315 17.6569 6 16 6Z" fill="#ECF0F1"/>
  <path d="M12 14C10.3431 14 9 15.3431 9 17V19C9 20.6569 10.3431 22 12 22H20C21.6569 22 23 20.6569 23 19V17C23 15.3431 21.6569 14 20 14H12Z" fill="#ECF0F1"/>
  <path d="M15 24C15 24.5523 15.4477 25 16 25C16.5523 25 17 24.5523 17 24V22C17 21.4477 16.5523 21 16 21C15.4477 21 15 21.4477 15 22V24Z" fill="#ECF0F1"/>
</svg> 